<svg width="95" height="21" viewBox="0 0 95 21" fill="none" xmlns="http://www.w3.org/2000/svg">
<path d="M18.5719 20.4843H11.6795L4.57424 6.77939H4.45449C4.62303 8.93492 4.7073 10.5804 4.7073 11.7158V20.4843H0.050293V1.03131H6.91605L13.9947 14.5499H14.0745C13.9504 12.5896 13.8883 11.015 13.8883 9.8264V1.03131H18.5719V20.4843Z" fill="url(#paint0_linear)"/>
<path d="M33.0485 20.4843H21.4991V1.03131H33.0485V5.24923H26.7549V8.30955H32.5828V12.5275H26.7549V16.1999H33.0485V20.4843Z" fill="url(#paint1_linear)"/>
<path d="M53.9784 20.4843H47.8977L44.1056 14.4036L40.3534 20.4843H34.4057L40.859 10.5316L34.7916 1.03131H40.6195L44.1322 7.0455L47.5119 1.03131H53.5127L47.3522 10.9441L53.9784 20.4843Z" fill="url(#paint2_linear)"/>
<path d="M64.7561 20.4843H59.5003V5.32906H54.7502V1.03131H69.4929V5.32906H64.7561V20.4843Z" fill="url(#paint3_linear)"/>
<path fill-rule="evenodd" clip-rule="evenodd" d="M34.4907 0.898254L47.7017 20.4843H53.8647L40.6538 0.898254H34.4907Z" fill="url(#paint4_linear)"/>
<path fill-rule="evenodd" clip-rule="evenodd" d="M53.8647 0.898254L40.6538 20.4843H34.4907L47.7017 0.898254H53.8647Z" fill="url(#paint5_linear)"/>
<path d="M82.4247 20.4506H79.5102V14.2107C79.5102 13.4399 79.3796 12.8634 79.1184 12.4811C78.8636 12.0925 78.4591 11.8982 77.9048 11.8982C77.1595 11.8982 76.618 12.1722 76.2803 12.72C75.9427 13.2679 75.7739 14.1693 75.7739 15.4243V20.4506H72.8594V9.76728H75.0859L75.4777 11.1338H75.6401C75.9268 10.6432 76.3409 10.261 76.8824 9.98706C77.4239 9.70676 78.045 9.56661 78.7457 9.56661C80.3447 9.56661 81.4277 10.089 81.9947 11.1338H82.2527C82.5394 10.6369 82.9598 10.2514 83.5141 9.97751C84.0747 9.70358 84.7054 9.56661 85.4061 9.56661C86.6165 9.56661 87.5307 9.87876 88.1486 10.5031C88.7729 11.121 89.0851 12.1148 89.0851 13.4845V20.4506H86.161V14.2107C86.161 13.4399 86.0304 12.8634 85.7692 12.4811C85.5144 12.0925 85.1099 11.8982 84.5557 11.8982C83.8422 11.8982 83.307 12.153 82.9503 12.6627C82.5999 13.1723 82.4247 13.9814 82.4247 15.0899V20.4506Z" fill="#FF7700"/>
<path d="M95.0001 20.4506H92.0856V5.58185H95.0001V20.4506Z" fill="#FF7700"/>
<defs>
<linearGradient id="paint0_linear" x1="34.7716" y1="1.03131" x2="34.7716" y2="20.4843" gradientUnits="userSpaceOnUse">
<stop stop-color="#FFB802"/>
<stop offset="1" stop-color="#FF7500"/>
</linearGradient>
<linearGradient id="paint1_linear" x1="34.7716" y1="1.03131" x2="34.7716" y2="20.4843" gradientUnits="userSpaceOnUse">
<stop stop-color="#FFB802"/>
<stop offset="1" stop-color="#FF7500"/>
</linearGradient>
<linearGradient id="paint2_linear" x1="34.7716" y1="1.03131" x2="34.7716" y2="20.4843" gradientUnits="userSpaceOnUse">
<stop stop-color="#FFB802"/>
<stop offset="1" stop-color="#FF7500"/>
</linearGradient>
<linearGradient id="paint3_linear" x1="34.7716" y1="1.03131" x2="34.7716" y2="20.4843" gradientUnits="userSpaceOnUse">
<stop stop-color="#FFB802"/>
<stop offset="1" stop-color="#FF7500"/>
</linearGradient>
<linearGradient id="paint4_linear" x1="44.1777" y1="0.898254" x2="44.1777" y2="20.4843" gradientUnits="userSpaceOnUse">
<stop stop-color="#FFB802"/>
<stop offset="1" stop-color="#FF7500"/>
</linearGradient>
<linearGradient id="paint5_linear" x1="44.1777" y1="0.898254" x2="44.1777" y2="20.4843" gradientUnits="userSpaceOnUse">
<stop stop-color="#FFB802"/>
<stop offset="1" stop-color="#FF7500"/>
</linearGradient>
</defs>
</svg>
